<svg xmlns="http://www.w3.org/2000/svg" width="24" height="24" viewBox="0 0 24 24">
  <path fill="#000000" fill-rule="evenodd" clip-rule="evenodd" d="M15 0C17.2812 0 19.1304 1.87433 19.1304 4.18643C19.1304 5.47113 18.5588 6.61984 17.6601 7.38779C19.0654 8.28485 20 9.87025 20 11.6779C20 11.8091 19.9935 11.9391 19.9839 12.0678H18.2375C18.2524 11.9399 18.2609 11.8099 18.2609 11.6779C18.2608 9.85267 16.8008 8.37293 15 8.37285C14.2574 8.37285 13.5733 8.62511 13.0252 9.04893C13.8385 9.81351 14.3478 10.9056 14.3478 12.1186C14.3478 13.4033 13.7762 14.552 12.8775 15.32C14.2828 16.217 15.2174 17.8024 15.2174 19.6101C15.2174 19.7413 15.2109 19.8713 15.2013 20H13.4549C13.4697 19.8721 13.4783 19.742 13.4783 19.6101C13.4782 17.7848 12.0182 16.3051 10.2174 16.305C8.41649 16.305 6.95657 17.7848 6.95652 19.6101C6.95652 19.742 6.96504 19.8721 6.97987 20H5.23353C5.22386 19.8713 5.21739 19.7413 5.21739 19.6101C5.2174 17.8026 6.15171 16.2171 7.5569 15.32C6.65831 14.552 6.08696 13.4032 6.08696 12.1186C6.08696 11.0082 6.51396 9.99924 7.21 9.2499C6.6289 8.70612 5.85325 8.37285 5 8.37285C3.19916 8.37293 1.73917 9.85267 1.73913 11.6779C1.73913 11.8099 1.74765 11.9399 1.76248 12.0678H0.0161345C0.00647051 11.9391 0 11.8091 0 11.6779C1.14001e-05 9.87025 0.934573 8.28485 2.33993 7.38779C1.4412 6.61984 0.869565 5.47113 0.869565 4.18643C0.869565 1.87433 2.71882 0 5 0C7.28118 0 9.13043 1.87433 9.13043 4.18643C9.13043 5.47101 8.55909 6.61984 7.6605 7.38779C8.0326 7.62534 8.37141 7.91144 8.6689 8.23686C9.14716 8.04068 9.66973 7.93218 10.2174 7.93218C10.644 7.93218 11.0556 7.99765 11.4428 8.11938C11.7126 7.8425 12.013 7.59622 12.3395 7.38779C11.4409 6.61984 10.8696 5.47101 10.8696 4.18643C10.8696 1.87433 12.7188 0 15 0ZM10.2174 9.69488C8.89671 9.69488 7.82609 10.78 7.82609 12.1186C7.82609 13.4572 8.89671 14.5423 10.2174 14.5423C11.5381 14.5423 12.6087 13.4572 12.6087 12.1186C12.6087 10.78 11.5381 9.69488 10.2174 9.69488ZM5 1.76271C3.67932 1.76271 2.6087 2.84784 2.6087 4.18643C2.6087 5.52501 3.67932 6.61015 5 6.61015C6.32068 6.61015 7.3913 5.52501 7.3913 4.18643C7.3913 2.84784 6.32068 1.76271 5 1.76271ZM15 1.76271C13.6793 1.76271 12.6087 2.84784 12.6087 4.18643C12.6087 5.52501 13.6793 6.61015 15 6.61015C16.3207 6.61015 17.3913 5.52501 17.3913 4.18643C17.3913 2.84784 16.3207 1.76271 15 1.76271Z" transform="translate(2 2)"/>
</svg>
