<svg xmlns="http://www.w3.org/2000/svg" width="24" height="24" viewBox="0 0 24 24">
  <path fill="#000000" d="M15.0737 5.28769L8.49086 0.168192C8.20285 -0.0560641 7.79709 -0.0560641 7.50909 0.168192L0.926261 5.28769C0.337503 5.74594 0 6.43595 0 7.18219V13.6C0 14.9237 1.07627 16 2.40004 16H13.6C14.9237 16 16 14.9237 16 13.6V7.18219C16.0008 6.43595 15.6632 5.74594 15.0737 5.28769ZM14.4002 13.6C14.4002 14.041 14.0417 14.4002 13.5999 14.4002L2.39998 14.3995C1.95897 14.3995 1.59971 14.0402 1.59971 13.5992V7.18141C1.59971 6.93315 1.71221 6.70215 1.90797 6.5499L8.00023 1.81287L14.0911 6.55067C14.2876 6.70367 14.4002 6.93392 14.4002 7.18217L14.4002 13.6Z" transform="translate(4 4)"/>
</svg>
