<svg xmlns="http://www.w3.org/2000/svg" width="24" height="24" viewBox="0 0 24 24">
  <path fill="#000000" fill-rule="evenodd" clip-rule="evenodd" d="M18.2164 11.417L19.5888 12.2084C19.8041 12.3339 19.9322 12.5001 19.9322 12.7918C19.9753 12.9999 19.9753 13.2089 19.8471 13.4169L17.873 16.709C17.7449 16.8752 17.5727 17.0415 17.3585 17.0833C17.1432 17.1251 16.929 17.1251 16.7148 17.0006L15.3413 16.2083C14.6126 16.8334 13.7546 17.2923 12.8106 17.6248V19.1668C12.8098 19.3875 12.7192 19.599 12.5585 19.7551C12.3978 19.9112 12.18 19.9992 11.9527 20H8.00553C7.77824 19.9992 7.56049 19.9112 7.39977 19.7551C7.23905 19.599 7.14841 19.3875 7.14762 19.1668V17.5422C6.22855 17.2099 5.37293 16.7311 4.61593 16.1256L3.24347 16.917C3.07129 17.0415 2.81401 17.0415 2.59979 17.0006C2.38556 16.9588 2.21337 16.8334 2.08524 16.6253L0.11114 13.3333C0.0250485 13.1671 -0.0169962 12.9172 0.0250485 12.7082C0.0680943 12.5001 0.197231 12.3339 0.411459 12.2084L1.78492 11.417C1.69939 10.9494 1.65618 10.4754 1.65578 10.0005C1.65578 9.54159 1.69883 9.08366 1.78492 8.58296L0.411459 7.79155C0.240277 7.6671 0.0680943 7.49988 0.0250485 7.29182C-0.0169962 7.08376 -0.0169962 6.87473 0.11114 6.66667L2.17033 3.29201C2.29947 3.12479 2.47065 2.95853 2.68588 2.91673C2.9001 2.87492 3.11433 2.87492 3.32856 3.00034L4.70202 3.79175C5.4308 3.16659 6.28971 2.70867 7.23271 2.37519V0.833212C7.2335 0.612299 7.32428 0.400668 7.48522 0.244549C7.64615 0.0884306 7.86416 0.000512412 8.09162 0H12.0378C12.2653 0.000512412 12.4833 0.0884306 12.6442 0.244549C12.8052 0.400668 12.8959 0.612299 12.8967 0.833212V2.41699C13.8154 2.74945 14.6707 3.22819 15.4274 3.83355L16.8009 3.04117C16.9721 2.91673 17.2293 2.91673 17.4446 2.95853C17.6588 3.00034 17.83 3.12479 17.9591 3.33285L19.8882 6.66667C20.0173 6.83292 20.0173 7.08376 19.9743 7.29182C19.9312 7.49988 19.8031 7.6671 19.5878 7.79155L18.2154 8.58296C18.3015 9.04185 18.3435 9.54159 18.3435 10.0005C18.3435 10.4584 18.3025 10.9163 18.2164 11.417ZM16.6287 10.0005C16.6287 9.45797 16.5436 8.91643 16.4145 8.3749C16.3284 7.99961 16.4575 7.6253 16.886 7.41626L18.0872 6.75028L16.9721 4.87482L15.7708 5.54178C15.6096 5.63595 15.4205 5.67478 15.2339 5.65204C15.0473 5.62929 14.8739 5.54629 14.7417 5.41636C13.9258 4.66676 12.9398 4.08342 11.8236 3.79175C11.6394 3.7511 11.475 3.65041 11.3579 3.50642C11.2408 3.36243 11.178 3.18383 11.1799 3.00034V1.66642H8.94954V3.04117C8.95171 3.22483 8.88901 3.40365 8.77188 3.54784C8.65475 3.69203 8.49026 3.79287 8.30585 3.83355C7.20244 4.11449 6.19572 4.67516 5.38875 5.45817C5.25646 5.58833 5.08293 5.67147 4.89608 5.69422C4.70923 5.71697 4.51993 5.678 4.35866 5.58359L3.15738 4.91663L2.04219 6.79209L3.24347 7.45807C3.54379 7.6253 3.71497 7.99961 3.62888 8.3749C3.49427 8.90745 3.4224 9.45314 3.41465 10.0015C3.41465 10.543 3.50074 11.0845 3.62888 11.6261C3.75802 11.9596 3.58683 12.3348 3.24347 12.5429L2.04219 13.2099L3.15738 15.0843L4.27256 14.4592C4.43384 14.3648 4.62314 14.3258 4.80999 14.3486C4.99684 14.3713 5.17037 14.4544 5.30266 14.5846C6.11753 15.3342 7.10457 15.9176 8.21976 16.2092C8.40417 16.2499 8.56865 16.3507 8.68579 16.4949C8.80292 16.6391 8.86562 16.818 8.86344 17.0016V18.3345H11.0948V16.9598C11.0948 16.5845 11.3521 16.251 11.7375 16.1684C12.8414 15.8873 13.8485 15.3263 14.6556 14.5428C14.7878 14.4129 14.9612 14.3299 15.1478 14.3071C15.3344 14.2844 15.5235 14.3232 15.6847 14.4174L16.886 15.0843L18.0022 13.2099L16.8009 12.5429C16.5006 12.3766 16.3284 12.0014 16.4145 11.6261C16.5489 11.0942 16.6208 10.5491 16.6287 10.0015V10.0005ZM5.73111 10.0005C5.73428 8.89627 6.18734 7.83815 6.99129 7.05735C7.79524 6.27655 8.88472 5.83653 10.0217 5.83345C11.1586 5.83653 12.2481 6.27655 13.0521 7.05735C13.856 7.83815 14.3091 8.89627 14.3122 10.0005C14.3088 11.1045 13.8556 12.1624 13.0517 12.943C12.2478 13.7236 11.1585 14.1635 10.0217 14.1665C8.88507 14.1635 7.79589 13.7237 6.992 12.9433C6.1881 12.163 5.73481 11.1053 5.73111 10.0015V10.0005ZM7.44794 10.0005C7.45005 10.6628 7.72189 11.2974 8.2041 11.7657C8.68631 12.2341 9.33973 12.4981 10.0217 12.5001C10.7038 12.4983 11.3575 12.2344 11.8399 11.7661C12.3223 11.2977 12.5943 10.663 12.5964 10.0005C12.5946 9.33783 12.3227 8.70284 11.8402 8.23427C11.3578 7.76571 10.704 7.50167 10.0217 7.49988C9.33938 7.50193 8.68567 7.76621 8.2034 8.23496C7.72113 8.70371 7.44952 9.33881 7.44794 10.0015V10.0005Z" transform="translate(2 2)"/>
</svg>
